<svg xmlns="http://www.w3.org/2000/svg" xmlns:xlink="http://www.w3.org/1999/xlink" width="106" zoomAndPan="magnify" viewBox="0 0 79.5 79.499996" height="106" preserveAspectRatio="xMidYMid meet" version="1.0"><defs><clipPath id="c16ad241c9"><path d="M 0 0 L 79.003906 0 L 79.003906 79.003906 L 0 79.003906 Z M 0 0 " clip-rule="nonzero"/></clipPath></defs><g clip-path="url(#c16ad241c9)"><path fill="#121212" d="M 79.5 39.75 C 79.5 41.050781 79.4375 42.351562 79.308594 43.644531 C 79.179688 44.941406 78.988281 46.226562 78.734375 47.503906 C 78.480469 48.78125 78.167969 50.042969 77.789062 51.289062 C 77.410156 52.535156 76.972656 53.757812 76.472656 54.960938 C 75.976562 56.164062 75.421875 57.339844 74.804688 58.488281 C 74.191406 59.636719 73.523438 60.75 72.800781 61.832031 C 72.078125 62.917969 71.304688 63.960938 70.476562 64.96875 C 69.652344 65.972656 68.777344 66.9375 67.859375 67.859375 C 66.9375 68.777344 65.972656 69.652344 64.96875 70.476562 C 63.960938 71.304688 62.917969 72.078125 61.832031 72.800781 C 60.75 73.523438 59.636719 74.191406 58.488281 74.804688 C 57.339844 75.421875 56.164062 75.976562 54.960938 76.472656 C 53.757812 76.972656 52.535156 77.410156 51.289062 77.789062 C 50.042969 78.167969 48.78125 78.480469 47.503906 78.734375 C 46.226562 78.988281 44.941406 79.179688 43.644531 79.308594 C 42.351562 79.4375 41.050781 79.5 39.75 79.5 C 38.449219 79.5 37.148438 79.4375 35.855469 79.308594 C 34.558594 79.179688 33.273438 78.988281 31.996094 78.734375 C 30.71875 78.480469 29.457031 78.167969 28.210938 77.789062 C 26.964844 77.410156 25.742188 76.972656 24.539062 76.472656 C 23.335938 75.976562 22.160156 75.421875 21.011719 74.804688 C 19.863281 74.191406 18.75 73.523438 17.667969 72.800781 C 16.582031 72.078125 15.539062 71.304688 14.53125 70.476562 C 13.527344 69.652344 12.5625 68.777344 11.640625 67.859375 C 10.722656 66.9375 9.847656 65.972656 9.023438 64.96875 C 8.195312 63.960938 7.421875 62.917969 6.699219 61.832031 C 5.976562 60.75 5.308594 59.636719 4.695312 58.488281 C 4.078125 57.339844 3.523438 56.164062 3.027344 54.960938 C 2.527344 53.757812 2.089844 52.535156 1.710938 51.289062 C 1.332031 50.042969 1.019531 48.78125 0.765625 47.503906 C 0.511719 46.226562 0.320312 44.941406 0.191406 43.644531 C 0.0625 42.351562 0 41.050781 0 39.75 C 0 38.449219 0.0625 37.148438 0.191406 35.855469 C 0.320312 34.558594 0.511719 33.273438 0.765625 31.996094 C 1.019531 30.71875 1.332031 29.457031 1.710938 28.210938 C 2.089844 26.964844 2.527344 25.742188 3.027344 24.539062 C 3.523438 23.335938 4.078125 22.160156 4.695312 21.011719 C 5.308594 19.863281 5.976562 18.75 6.699219 17.667969 C 7.421875 16.582031 8.195312 15.539062 9.023438 14.53125 C 9.847656 13.527344 10.722656 12.5625 11.640625 11.640625 C 12.5625 10.722656 13.527344 9.847656 14.53125 9.023438 C 15.539062 8.195312 16.582031 7.421875 17.667969 6.699219 C 18.75 5.976562 19.863281 5.308594 21.011719 4.695312 C 22.160156 4.078125 23.335938 3.523438 24.539062 3.027344 C 25.742188 2.527344 26.964844 2.089844 28.210938 1.710938 C 29.457031 1.332031 30.71875 1.019531 31.996094 0.765625 C 33.273438 0.511719 34.558594 0.320312 35.855469 0.191406 C 37.148438 0.0625 38.449219 0 39.75 0 C 41.050781 0 42.351562 0.0625 43.644531 0.191406 C 44.941406 0.320312 46.226562 0.511719 47.503906 0.765625 C 48.78125 1.019531 50.042969 1.332031 51.289062 1.710938 C 52.535156 2.089844 53.757812 2.527344 54.960938 3.027344 C 56.164062 3.523438 57.339844 4.078125 58.488281 4.695312 C 59.636719 5.308594 60.75 5.976562 61.832031 6.699219 C 62.917969 7.421875 63.960938 8.195312 64.96875 9.023438 C 65.972656 9.847656 66.9375 10.722656 67.859375 11.640625 C 68.777344 12.5625 69.652344 13.527344 70.476562 14.53125 C 71.304688 15.539062 72.078125 16.582031 72.800781 17.667969 C 73.523438 18.75 74.191406 19.863281 74.804688 21.011719 C 75.421875 22.160156 75.976562 23.335938 76.472656 24.539062 C 76.972656 25.742188 77.410156 26.964844 77.789062 28.210938 C 78.167969 29.457031 78.480469 30.71875 78.734375 31.996094 C 78.988281 33.273438 79.179688 34.558594 79.308594 35.855469 C 79.4375 37.148438 79.5 38.449219 79.5 39.75 Z M 79.5 39.75 " fill-opacity="1" fill-rule="nonzero"/></g><path fill="#5ce1e6" d="M 66.980469 44.042969 C 66.183594 44.042969 65.585938 43.367188 65.585938 42.570312 L 65.585938 37.324219 C 65.585938 36.53125 66.183594 35.855469 66.980469 35.855469 C 67.773438 35.855469 68.371094 36.53125 68.371094 37.324219 L 68.371094 42.613281 C 68.371094 43.40625 67.773438 44.042969 66.980469 44.042969 Z M 66.980469 44.042969 " fill-opacity="1" fill-rule="nonzero"/><path fill="#5ce1e6" d="M 16.097656 44.042969 C 15.304688 44.042969 14.707031 43.367188 14.707031 42.570312 L 14.707031 37.324219 C 14.707031 36.53125 15.304688 35.855469 16.097656 35.855469 C 16.894531 35.855469 17.488281 36.53125 17.488281 37.324219 L 17.488281 42.613281 C 17.488281 43.40625 16.894531 44.042969 16.097656 44.042969 Z M 16.097656 44.042969 " fill-opacity="1" fill-rule="nonzero"/><path fill="#5ce1e6" d="M 27.230469 60.777344 C 26.394531 60.777344 25.835938 59.984375 25.835938 59.027344 L 25.835938 20.867188 C 25.835938 19.914062 26.394531 19.121094 27.230469 19.121094 C 28.0625 19.121094 28.621094 19.914062 28.621094 20.867188 L 28.621094 59.070312 C 28.621094 60.023438 28.023438 60.777344 27.230469 60.777344 Z M 27.230469 60.777344 " fill-opacity="1" fill-rule="nonzero"/><path fill="#5ce1e6" d="M 21.265625 51.4375 C 20.429688 51.4375 19.875 50.761719 19.875 49.964844 L 19.875 29.972656 C 19.875 29.136719 20.429688 28.5 21.265625 28.5 C 22.101562 28.5 22.65625 29.175781 22.65625 29.972656 L 22.65625 49.964844 C 22.65625 50.761719 22.0625 51.4375 21.265625 51.4375 Z M 21.265625 51.4375 " fill-opacity="1" fill-rule="nonzero"/><path fill="#5ce1e6" d="M 32.992188 51.4375 C 32.15625 51.4375 31.402344 50.761719 31.402344 49.964844 L 31.402344 29.972656 C 31.402344 29.136719 32.15625 28.5 32.992188 28.5 C 33.828125 28.5 34.582031 29.175781 34.582031 29.972656 L 34.582031 49.964844 C 34.582031 50.761719 33.789062 51.4375 32.992188 51.4375 Z M 32.992188 51.4375 " fill-opacity="1" fill-rule="nonzero"/><path fill="#5ce1e6" d="M 44.121094 51.4375 C 43.289062 51.4375 42.53125 50.761719 42.53125 49.964844 L 42.53125 29.972656 C 42.53125 29.136719 43.289062 28.5 44.121094 28.5 C 44.957031 28.5 45.710938 29.175781 45.710938 29.972656 L 45.710938 49.964844 C 45.710938 50.761719 44.917969 51.4375 44.121094 51.4375 Z M 44.121094 51.4375 " fill-opacity="1" fill-rule="nonzero"/><path fill="#5ce1e6" d="M 55.847656 51.4375 C 55.015625 51.4375 54.457031 50.761719 54.457031 49.964844 L 54.457031 29.972656 C 54.457031 29.136719 55.015625 28.5 55.847656 28.5 C 56.683594 28.5 57.238281 29.175781 57.238281 29.972656 L 57.238281 49.964844 C 57.238281 50.761719 56.644531 51.4375 55.847656 51.4375 Z M 55.847656 51.4375 " fill-opacity="1" fill-rule="nonzero"/><path fill="#5ce1e6" d="M 50.085938 46.230469 C 49.25 46.230469 48.496094 45.554688 48.496094 44.757812 L 48.496094 35.140625 C 48.496094 34.304688 49.25 33.667969 50.085938 33.667969 C 50.917969 33.667969 51.675781 34.34375 51.675781 35.140625 L 51.675781 44.757812 C 51.675781 45.59375 50.878906 46.230469 50.085938 46.230469 Z M 50.085938 46.230469 " fill-opacity="1" fill-rule="nonzero"/><path fill="#5ce1e6" d="M 61.8125 46.191406 C 60.976562 46.191406 60.421875 45.515625 60.421875 44.71875 L 60.421875 35.058594 C 60.421875 34.226562 60.976562 33.589844 61.8125 33.589844 C 62.644531 33.589844 63.203125 34.265625 63.203125 35.058594 L 63.203125 44.679688 C 63.203125 45.515625 62.605469 46.191406 61.8125 46.191406 Z M 61.8125 46.191406 " fill-opacity="1" fill-rule="nonzero"/><path fill="#5ce1e6" d="M 38.757812 46.230469 C 37.921875 46.230469 37.363281 45.554688 37.363281 44.757812 L 37.363281 35.140625 C 37.363281 34.304688 37.921875 33.667969 38.757812 33.667969 C 39.589844 33.667969 40.148438 34.34375 40.148438 35.140625 L 40.148438 44.757812 C 40.148438 45.59375 39.550781 46.230469 38.757812 46.230469 Z M 38.757812 46.230469 " fill-opacity="1" fill-rule="nonzero"/></svg>